# xmcd CD database file
#
# Track frame offsets:
#	150
#	8487
#	21072
#	31987
#	44672
#	61595
#	77685
#	89917
#	101757
#	113075
#	125080
#	133327
#	145287
#	153817
#	170052
#	182645
#	193105
#	211277
#	218442
#
# Disc length: 3082 seconds
#
# Revision: 0
# Processed by: cddbd v1.4PL0 Copyright (c) Steve Scherf et al.
# Submitted via: CDex 1.50
#
DISCID=0a0c0813
DTITLE=Johnny Cash - Live
DYEAR=1997
DGENRE=Country
TTITLE0=Get Rhythm
TTITLE1=Ring Of Fire
TTITLE2=Rock Island Line
TTITLE3=Peace In The Valley
TTITLE4=Sunday Morning Coming Down
TTITLE5=A Boy Named Sue
TTITLE6=Folsom Prison Blues
TTITLE7=Highwayman
TTITLE8=Big River
TTITLE9=Sixteen Tons
TTITLE10=The Wall
TTITLE11=I Still Miss Someone
TTITLE12=I Got Stripes
TTITLE13=City Of New Orleans
TTITLE14=Jackson
TTITLE15=If I Were A Carpenter
TTITLE16=Orange Blossom Special
TTITLE17=Casey Jones
TTITLE18=I Walk The Line
EXTD=YEAR: 1997
EXTT0=
EXTT1=
EXTT2=
EXTT3=
EXTT4=
EXTT5=
EXTT6=
EXTT7=
EXTT8=
EXTT9=
EXTT10=
EXTT11=
EXTT12=
EXTT13=
EXTT14=
EXTT15=
EXTT16=
EXTT17=
EXTT18=
PLAYORDER=
